<svg xmlns="http://www.w3.org/2000/svg" viewBox="0 0 1600 900" width="1600" height="900" role="presentation" preserveAspectRatio="xMidYMid slice">
  <defs>
    <linearGradient id="ground" x1="0" y1="0" x2="0.43" y2="1">
      <stop offset="0" stop-color="#142019"/>
      <stop offset="0.5" stop-color="#0A1410"/>
      <stop offset="1" stop-color="#040907"/>
    </linearGradient>
    <radialGradient id="source" cx="0.360" cy="0.260" r="0.82">
      <stop offset="0" stop-color="#238C69" stop-opacity="0.33"/>
      <stop offset="0.32" stop-color="#17604A" stop-opacity="0.16"/>
      <stop offset="1" stop-color="#17604A" stop-opacity="0"/>
    </radialGradient>
    <linearGradient id="beam" x1="0" y1="0" x2="1" y2="0">
      <stop offset="0" stop-color="#F0DCA9" stop-opacity="0"/>
      <stop offset="0.42" stop-color="#F0DCA9" stop-opacity="0.081"/>
      <stop offset="0.72" stop-color="#F0DCA9" stop-opacity="0"/>
    </linearGradient>
    <linearGradient id="horizon" x1="0" y1="0" x2="1" y2="0">
      <stop offset="0" stop-color="#A8842F" stop-opacity="0"/>
      <stop offset="0.5" stop-color="#238C69" stop-opacity="0.3"/>
      <stop offset="1" stop-color="#A8842F" stop-opacity="0"/>
    </linearGradient>
    <radialGradient id="vignette" cx="0.5" cy="0.46" r="0.8">
      <stop offset="0.42" stop-color="#040907" stop-opacity="0"/>
      <stop offset="1" stop-color="#040907" stop-opacity="0.66"/>
    </radialGradient>
    <pattern id="grain" width="180" height="180" patternUnits="userSpaceOnUse">
      <rect width="180" height="180" filter="url(#noise)"/>
    </pattern>
    <filter id="noise" x="0" y="0" width="180" height="180">
      <feTurbulence type="fractalNoise" baseFrequency="0.9" numOctaves="3" stitchTiles="stitch"/>
      <feColorMatrix type="saturate" values="0"/>
    </filter>
    <clipPath id="frame"><rect width="1600" height="900"/></clipPath>
  </defs>

  <g clip-path="url(#frame)">
    <rect width="1600" height="900" fill="url(#ground)"/>
    <rect width="1600" height="900" fill="url(#source)"/>

    <g transform="rotate(3 800.0 450.0)">
      <line x1="-827.6" y1="-90.0" x2="-827.6" y2="990.0"
         stroke="#F7F4EC" stroke-width="1.03"
         opacity="0.013"/>
      <line x1="-759.8" y1="-90.0" x2="-759.8" y2="990.0"
         stroke="#F7F4EC" stroke-width="0.98"
         opacity="0.025"/>
      <line x1="-704.8" y1="-90.0" x2="-704.8" y2="990.0"
         stroke="#F7F4EC" stroke-width="1.05"
         opacity="0.026"/>
      <line x1="-625.8" y1="-90.0" x2="-625.8" y2="990.0"
         stroke="#F7F4EC" stroke-width="0.75"
         opacity="0.046"/>
      <line x1="-572.6" y1="-90.0" x2="-572.6" y2="990.0"
         stroke="#F7F4EC" stroke-width="1.11"
         opacity="0.018"/>
      <line x1="-538.2" y1="-90.0" x2="-538.2" y2="990.0"
         stroke="#F7F4EC" stroke-width="1.00"
         opacity="0.041"/>
      <line x1="-511.4" y1="-90.0" x2="-511.4" y2="990.0"
         stroke="#F7F4EC" stroke-width="0.75"
         opacity="0.018"/>
      <line x1="-475.9" y1="-90.0" x2="-475.9" y2="990.0"
         stroke="#F7F4EC" stroke-width="1.07"
         opacity="0.042"/>
      <line x1="-421.9" y1="-90.0" x2="-421.9" y2="990.0"
         stroke="#F7F4EC" stroke-width="1.09"
         opacity="0.029"/>
      <line x1="-385.8" y1="-90.0" x2="-385.8" y2="990.0"
         stroke="#F7F4EC" stroke-width="0.64"
         opacity="0.045"/>
      <line x1="-349.3" y1="-90.0" x2="-349.3" y2="990.0"
         stroke="#F7F4EC" stroke-width="0.89"
         opacity="0.046"/>
      <line x1="-318.3" y1="-90.0" x2="-318.3" y2="990.0"
         stroke="#F7F4EC" stroke-width="1.21"
         opacity="0.029"/>
      <line x1="-243.6" y1="-90.0" x2="-243.6" y2="990.0"
         stroke="#F7F4EC" stroke-width="0.90"
         opacity="0.021"/>
      <line x1="-216.7" y1="-90.0" x2="-216.7" y2="990.0"
         stroke="#F7F4EC" stroke-width="1.05"
         opacity="0.047"/>
      <line x1="-147.8" y1="-90.0" x2="-147.8" y2="990.0"
         stroke="#F7F4EC" stroke-width="0.83"
         opacity="0.022"/>
      <line x1="-69.6" y1="-90.0" x2="-69.6" y2="990.0"
         stroke="#F7F4EC" stroke-width="0.77"
         opacity="0.025"/>
      <line x1="-16.1" y1="-90.0" x2="-16.1" y2="990.0"
         stroke="#F7F4EC" stroke-width="0.94"
         opacity="0.034"/>
      <line x1="66.6" y1="-90.0" x2="66.6" y2="990.0"
         stroke="#F7F4EC" stroke-width="0.84"
         opacity="0.013"/>
      <line x1="121.4" y1="-90.0" x2="121.4" y2="990.0"
         stroke="#F7F4EC" stroke-width="1.28"
         opacity="0.035"/>
      <line x1="187.1" y1="-90.0" x2="187.1" y2="990.0"
         stroke="#F7F4EC" stroke-width="1.07"
         opacity="0.034"/>
      <line x1="271.3" y1="-90.0" x2="271.3" y2="990.0"
         stroke="#F7F4EC" stroke-width="1.14"
         opacity="0.034"/>
      <line x1="358.4" y1="-90.0" x2="358.4" y2="990.0"
         stroke="#F7F4EC" stroke-width="1.09"
         opacity="0.031"/>
      <line x1="405.1" y1="-90.0" x2="405.1" y2="990.0"
         stroke="#F7F4EC" stroke-width="0.69"
         opacity="0.041"/>
      <line x1="457.9" y1="-90.0" x2="457.9" y2="990.0"
         stroke="#F7F4EC" stroke-width="0.76"
         opacity="0.045"/>
      <line x1="512.2" y1="-90.0" x2="512.2" y2="990.0"
         stroke="#F7F4EC" stroke-width="1.14"
         opacity="0.040"/>
      <line x1="553.0" y1="-90.0" x2="553.0" y2="990.0"
         stroke="#F7F4EC" stroke-width="1.18"
         opacity="0.039"/>
      <line x1="591.1" y1="-90.0" x2="591.1" y2="990.0"
         stroke="#F7F4EC" stroke-width="0.70"
         opacity="0.048"/>
      <line x1="641.8" y1="-90.0" x2="641.8" y2="990.0"
         stroke="#F7F4EC" stroke-width="0.73"
         opacity="0.034"/>
      <line x1="719.6" y1="-90.0" x2="719.6" y2="990.0"
         stroke="#F7F4EC" stroke-width="0.66"
         opacity="0.021"/>
      <line x1="763.7" y1="-90.0" x2="763.7" y2="990.0"
         stroke="#F7F4EC" stroke-width="0.60"
         opacity="0.042"/>
      <line x1="791.8" y1="-90.0" x2="791.8" y2="990.0"
         stroke="#F7F4EC" stroke-width="0.75"
         opacity="0.016"/>
      <line x1="874.7" y1="-90.0" x2="874.7" y2="990.0"
         stroke="#F7F4EC" stroke-width="1.09"
         opacity="0.025"/>
      <line x1="948.6" y1="-90.0" x2="948.6" y2="990.0"
         stroke="#F7F4EC" stroke-width="0.88"
         opacity="0.032"/>
      <line x1="1014.8" y1="-90.0" x2="1014.8" y2="990.0"
         stroke="#F7F4EC" stroke-width="0.79"
         opacity="0.036"/>
      <line x1="1042.7" y1="-90.0" x2="1042.7" y2="990.0"
         stroke="#F7F4EC" stroke-width="1.07"
         opacity="0.037"/>
      <line x1="1130.7" y1="-90.0" x2="1130.7" y2="990.0"
         stroke="#F7F4EC" stroke-width="0.70"
         opacity="0.021"/>
      <line x1="1215.0" y1="-90.0" x2="1215.0" y2="990.0"
         stroke="#F7F4EC" stroke-width="1.18"
         opacity="0.037"/>
      <line x1="1281.7" y1="-90.0" x2="1281.7" y2="990.0"
         stroke="#F7F4EC" stroke-width="0.79"
         opacity="0.018"/>
      <line x1="1368.8" y1="-90.0" x2="1368.8" y2="990.0"
         stroke="#F7F4EC" stroke-width="0.64"
         opacity="0.039"/>
      <line x1="1420.8" y1="-90.0" x2="1420.8" y2="990.0"
         stroke="#F7F4EC" stroke-width="1.26"
         opacity="0.029"/>
      <line x1="1504.9" y1="-90.0" x2="1504.9" y2="990.0"
         stroke="#F7F4EC" stroke-width="0.92"
         opacity="0.033"/>
      <line x1="1561.6" y1="-90.0" x2="1561.6" y2="990.0"
         stroke="#F7F4EC" stroke-width="0.65"
         opacity="0.039"/>
      <line x1="1627.3" y1="-90.0" x2="1627.3" y2="990.0"
         stroke="#F7F4EC" stroke-width="0.84"
         opacity="0.014"/>
      <line x1="1655.2" y1="-90.0" x2="1655.2" y2="990.0"
         stroke="#F7F4EC" stroke-width="0.88"
         opacity="0.013"/>
      <line x1="1695.3" y1="-90.0" x2="1695.3" y2="990.0"
         stroke="#F7F4EC" stroke-width="0.94"
         opacity="0.022"/>
      <line x1="1772.6" y1="-90.0" x2="1772.6" y2="990.0"
         stroke="#F7F4EC" stroke-width="1.17"
         opacity="0.038"/>
      <line x1="1839.9" y1="-90.0" x2="1839.9" y2="990.0"
         stroke="#F7F4EC" stroke-width="0.87"
         opacity="0.024"/>
      <line x1="1866.4" y1="-90.0" x2="1866.4" y2="990.0"
         stroke="#F7F4EC" stroke-width="1.27"
         opacity="0.042"/>
      <line x1="1924.9" y1="-90.0" x2="1924.9" y2="990.0"
         stroke="#F7F4EC" stroke-width="0.80"
         opacity="0.014"/>
      <line x1="2008.1" y1="-90.0" x2="2008.1" y2="990.0"
         stroke="#F7F4EC" stroke-width="1.00"
         opacity="0.018"/>
      <line x1="2059.2" y1="-90.0" x2="2059.2" y2="990.0"
         stroke="#F7F4EC" stroke-width="0.88"
         opacity="0.030"/>
      <line x1="2146.2" y1="-90.0" x2="2146.2" y2="990.0"
         stroke="#F7F4EC" stroke-width="1.02"
         opacity="0.028"/>
      <line x1="2187.1" y1="-90.0" x2="2187.1" y2="990.0"
         stroke="#F7F4EC" stroke-width="0.78"
         opacity="0.017"/>
      <line x1="2240.1" y1="-90.0" x2="2240.1" y2="990.0"
         stroke="#F7F4EC" stroke-width="1.00"
         opacity="0.032"/>
      <line x1="2303.2" y1="-90.0" x2="2303.2" y2="990.0"
         stroke="#F7F4EC" stroke-width="0.70"
         opacity="0.016"/>
      <line x1="2349.2" y1="-90.0" x2="2349.2" y2="990.0"
         stroke="#F7F4EC" stroke-width="1.07"
         opacity="0.017"/>
      <line x1="2435.9" y1="-90.0" x2="2435.9" y2="990.0"
         stroke="#F7F4EC" stroke-width="0.85"
         opacity="0.032"/>
      <line x1="2469.6" y1="-90.0" x2="2469.6" y2="990.0"
         stroke="#F7F4EC" stroke-width="1.01"
         opacity="0.042"/>
      <line x1="2540.2" y1="-90.0" x2="2540.2" y2="990.0"
         stroke="#F7F4EC" stroke-width="0.77"
         opacity="0.015"/>
      <rect x="-320.0" y="123.3" width="2240.0" height="73.6"
        fill="url(#beam)" opacity="0.50"/><rect x="-320.0" y="234.0" width="2240.0" height="54.7"
        fill="url(#beam)" opacity="0.37"/><rect x="-320.0" y="393.8" width="2240.0" height="45.2"
        fill="url(#beam)" opacity="0.24"/>
      <rect x="-320.0" y="402.4" width="2240.0" height="1.2" fill="url(#horizon)"/>
      <rect x="-320.0" y="451.9" width="2240.0" height="1" fill="url(#horizon)" opacity="0.5"/>
    </g>

    <circle cx="576.0" cy="234.0" r="27.0" fill="#F0DCA9" opacity="0.095"/>
    <rect width="1600" height="900" fill="url(#vignette)"/>
    <rect width="1600" height="900" fill="url(#grain)" opacity="0.05" style="mix-blend-mode:overlay"/>
  </g>
</svg>
